<?xml version="1.0" encoding="UTF-8" standalone="no"?>
<!-- Created with Inkscape (http://www.inkscape.org/) -->

<svg
   width="313.39896mm"
   height="168.01042mm"
   viewBox="0 0 313.39898 168.01043"
   version="1.1"
   id="svg5"
   sodipodi:docname="logoVTK.svg"
   inkscape:version="1.1.2 (0a00cf5339, 2022-02-04)"
   xmlns:inkscape="http://www.inkscape.org/namespaces/inkscape"
   xmlns:sodipodi="http://sodipodi.sourceforge.net/DTD/sodipodi-0.dtd"
   xmlns="http://www.w3.org/2000/svg"
   xmlns:svg="http://www.w3.org/2000/svg">
  <sodipodi:namedview
     id="namedview7"
     pagecolor="#ffffff"
     bordercolor="#000000"
     borderopacity="0.25"
     inkscape:pageshadow="2"
     inkscape:pageopacity="0.0"
     inkscape:pagecheckerboard="0"
     inkscape:document-units="mm"
     showgrid="false"
     fit-margin-top="0"
     fit-margin-left="0"
     fit-margin-right="0"
     fit-margin-bottom="0"
     inkscape:zoom="0.32026164"
     inkscape:cx="112.40809"
     inkscape:cy="57.765269"
     inkscape:window-width="1920"
     inkscape:window-height="972"
     inkscape:window-x="0"
     inkscape:window-y="27"
     inkscape:window-maximized="1"
     inkscape:current-layer="layer1" />
  <defs
     id="defs2">
    <clipPath
       clipPathUnits="userSpaceOnUse"
       id="clipPath1785">
      <rect
         style="opacity:0.5;fill:#000000;stroke:#000000;stroke-width:0.117713;stroke-miterlimit:10"
         id="rect1787"
         width="204.01234"
         height="110.72557"
         x="-54.361553"
         y="91.911285" />
    </clipPath>
  </defs>
  <g
     inkscape:label="Layer 1"
     inkscape:groupmode="layer"
     id="layer1"
     transform="translate(-299.05994,-78.692346)">
    <g
       id="g2171"
       transform="matrix(0.26458333,0,0,0.26458333,299.00702,78.692346)">
      <path
         d="m 0.2,0 129.5,533 h 19.1 L 19.3,0 Z m 347.1,91 -95,198 5.9,24 106.5,-222 z m 667.6,0 -47.3,70.7 -8.1,45.6 78,-116.3 z M 533.5,209.5 476.4,533 h 18.1 l 57.1,-323.5 z m 243.2,0 -57.1,323.5 h 18 L 794.7,209.5 Z M 925.1,402.4 916,454 959.7,635 h 21.5 z"
         style="fill:#939598"
         id="path4-9" />
      <path
         d="m 34.1,0 129.5,533 h 137 L 512.7,91 H 384 L 252.2,365.9 163.2,0 Z m 498.6,91 -49.4,103 h 89.1 L 512.6,533 H 628.4 L 688.2,194 H 795.3 L 844.7,91 Z m 332,0 L 815,194.5 755.3,533 h 130.5 l 31.1,-176 h 14.6 l 67.1,278 h 129.1 L 1046.3,297.7 1184.7,91 H 1055.9 L 951.4,247 H 936.3 L 963.8,91 Z"
         style="fill:#064f8d"
         id="path6-1" />
    </g>
  </g>
</svg>
