<?xml version="1.0" encoding="UTF-8" standalone="no"?>
<!-- Created with Inkscape (http://www.inkscape.org/) -->

<svg
   width="161.12234mm"
   height="161.12234mm"
   viewBox="0 0 161.12235 161.12235"
   version="1.1"
   id="svg5"
   sodipodi:docname="logoWasm.svg"
   inkscape:version="1.1.2 (0a00cf5339, 2022-02-04)"
   xmlns:inkscape="http://www.inkscape.org/namespaces/inkscape"
   xmlns:sodipodi="http://sodipodi.sourceforge.net/DTD/sodipodi-0.dtd"
   xmlns="http://www.w3.org/2000/svg"
   xmlns:svg="http://www.w3.org/2000/svg">
  <sodipodi:namedview
     id="namedview7"
     pagecolor="#ffffff"
     bordercolor="#000000"
     borderopacity="0.25"
     inkscape:pageshadow="2"
     inkscape:pageopacity="0.0"
     inkscape:pagecheckerboard="0"
     inkscape:document-units="mm"
     showgrid="false"
     fit-margin-top="0"
     fit-margin-left="0"
     fit-margin-right="0"
     fit-margin-bottom="0"
     inkscape:zoom="0.32026164"
     inkscape:cx="-415.28545"
     inkscape:cy="563.60168"
     inkscape:window-width="1920"
     inkscape:window-height="972"
     inkscape:window-x="0"
     inkscape:window-y="27"
     inkscape:window-maximized="1"
     inkscape:current-layer="layer1" />
  <defs
     id="defs2" />
  <g
     inkscape:label="Layer 1"
     inkscape:groupmode="layer"
     id="layer1"
     transform="translate(-161.62507,-68.58551)">
    <g
       id="g1447"
       transform="matrix(0.26327181,0,0,0.26327181,161.62507,68.58551)">
      <path
         d="m 376,0 c 0,1.08 0,2.16 0,3.3 0,38.76 -31.42,70.17 -70.17,70.17 -38.76,0 -70.17,-31.42 -70.17,-70.17 v 0 c 0,-1.14 0,-2.22 0,-3.3 L 0,0 V 612 H 612 V 0 Z"
         fill="#654ff0"
         id="path1435" />
      <path
         d="m 142.16,329.81 h 40.56 l 27.69,147.47 h 0.5 l 33.28,-147.47 h 37.94 l 30.06,149.28 h 0.59 l 31.56,-149.28 h 39.78 L 332.43,546.5 H 292.18 L 262.37,399.03 h -0.78 L 229.68,546.5 h -41 z m 287.69,0 h 63.94 l 63.5,216.69 H 515.45 L 501.64,498.28 H 428.8 l -10.66,48.22 h -40.75 z m 24.34,53.41 -17.69,79.5 h 55.06 l -20.31,-79.5 z"
         fill="#ffffff"
         id="path1437" />
    </g>
  </g>
</svg>
